<svg width="31" height="32" viewBox="0 0 31 32" fill="none" xmlns="http://www.w3.org/2000/svg">
<path d="M10.7522 22.4775H20.3831C20.6104 22.4776 20.8287 22.5678 20.9895 22.7285C21.1502 22.8893 21.2404 23.1076 21.2405 23.335C21.2405 23.534 21.1712 23.7263 21.0461 23.8789L20.9895 23.9414C20.8287 24.1022 20.6105 24.1933 20.3831 24.1934H10.7522L10.6682 24.1885C10.4999 24.1718 10.3401 24.1062 10.2092 23.999L10.1458 23.9414C9.98519 23.7806 9.89478 23.5622 9.89478 23.335C9.89488 23.1361 9.96423 22.9445 10.0891 22.792L10.1458 22.7285C10.3065 22.5678 10.5249 22.4777 10.7522 22.4775ZM19.7805 9.83789C19.9795 9.83789 20.1719 9.90723 20.3245 10.0322L20.387 10.0889C20.5477 10.2496 20.6388 10.468 20.6389 10.6953V16.1123L20.6321 16.3643C20.5687 17.6171 20.0428 18.806 19.1516 19.6973C18.201 20.6477 16.9119 21.1822 15.5676 21.1836L15.3167 21.1768C14.0638 21.1134 12.8749 20.5885 11.9836 19.6973C11.033 18.7466 10.4987 17.4568 10.4973 16.1123V10.6953C10.4974 10.4966 10.5659 10.3048 10.6907 10.1523L10.7483 10.0889C10.9091 9.92822 11.1274 9.83789 11.3547 9.83789C11.5536 9.83793 11.7452 9.90737 11.8977 10.0322L11.9612 10.0889C12.1219 10.2496 12.212 10.468 12.2122 10.6953V16.1123C12.2122 16.9467 12.5229 17.7497 13.0803 18.3652L13.1946 18.4854C13.8238 19.1146 14.6777 19.4687 15.5676 19.4688C16.4018 19.4688 17.2041 19.1577 17.8196 18.6006L17.9407 18.4854C18.5699 17.8561 18.9231 17.0022 18.9231 16.1123V10.6953C18.9232 10.4965 18.9925 10.3048 19.1174 10.1523L19.1741 10.0889C19.3348 9.92814 19.5532 9.83801 19.7805 9.83789Z" fill="#475569" stroke="#475569" stroke-width="0.0902829"/>
</svg>
