<svg width="32" height="32" viewBox="0 0 32 32" fill="none" xmlns="http://www.w3.org/2000/svg">
<path d="M19.6375 8.3335C19.9292 8.33361 20.2187 8.37706 20.4968 8.46143L20.7712 8.56006C21.041 8.6719 21.2924 8.82266 21.5173 9.00732L21.7332 9.20264C21.9394 9.40905 22.1137 9.64444 22.2507 9.90088L22.3757 10.1646C22.5246 10.5243 22.6014 10.91 22.6013 11.2993L22.5867 11.5903C22.5676 11.7833 22.5297 11.9741 22.4734 12.1597L22.3748 12.4331C22.2259 12.7922 22.008 13.1191 21.7332 13.394L21.7205 13.4067H21.7195L14.5125 20.3452C14.4516 20.4037 14.3823 20.4525 14.3074 20.4907L14.2302 20.5259C14.1255 20.5668 14.0136 20.5866 13.9011 20.5845L13.8171 20.5786C13.7614 20.572 13.7065 20.5598 13.6531 20.5425L13.574 20.5122C13.4968 20.4784 13.425 20.4339 13.3611 20.3794L13.2996 20.3218C13.2215 20.2406 13.16 20.1444 13.1189 20.0396C13.0778 19.9347 13.0581 19.8221 13.0603 19.7095L13.0662 19.6255C13.0728 19.5698 13.084 19.5147 13.1013 19.4614L13.1316 19.3833C13.1655 19.3058 13.2106 19.2335 13.2654 19.1694L13.323 19.1079L20.5242 12.1772C20.7577 11.9423 20.8885 11.6237 20.8875 11.2925L20.8806 11.1694C20.8555 10.9242 20.7591 10.6916 20.6023 10.5015L20.5193 10.4106C20.4321 10.324 20.3326 10.2503 20.2244 10.1929L20.113 10.1411C19.9993 10.0944 19.8795 10.0649 19.7576 10.0532L19.6345 10.0474C19.3446 10.0483 19.0652 10.1497 18.8435 10.3325L18.7527 10.4155L11.3679 17.7788C10.8515 18.2954 10.5611 18.9956 10.5613 19.7261L10.575 19.9966C10.5927 20.1757 10.6272 20.3527 10.6794 20.5249L10.7712 20.7798C10.8751 21.0304 11.0148 21.2642 11.1863 21.4731L11.3679 21.6733C11.5598 21.8652 11.7789 22.0274 12.0173 22.1548L12.2615 22.27C12.5121 22.3738 12.7767 22.4398 13.0457 22.4663L13.3162 22.48C13.9551 22.4798 14.5714 22.2575 15.0613 21.856L15.2634 21.6724L21.4373 15.5034C21.517 15.4237 21.6114 15.3601 21.7156 15.3169C21.8198 15.2737 21.9318 15.2515 22.0447 15.2515C22.1292 15.2515 22.2131 15.2641 22.2937 15.2886L22.3738 15.3169C22.4519 15.3493 22.5245 15.3933 22.5896 15.4468L22.6521 15.5034C22.7119 15.5632 22.7627 15.6312 22.8025 15.7056L22.8386 15.7817C22.8818 15.886 22.9041 15.998 22.9041 16.1108C22.904 16.1954 22.8914 16.2793 22.8669 16.3599L22.8386 16.4399C22.7969 16.5407 22.735 16.6314 22.6589 16.7095L22.6492 16.7192L16.4753 22.8882C15.637 23.7263 14.4996 24.197 13.3142 24.1968L13.0925 24.1919C12.0617 24.1405 11.0802 23.7333 10.3152 23.0405L10.1541 22.8872C9.31619 22.049 8.84537 20.9122 8.84546 19.7271L8.85132 19.5054C8.90257 18.4742 9.30954 17.4923 10.0027 16.7271L10.155 16.5659L17.5408 9.20166C18.0275 8.71523 18.6656 8.41526 19.3445 8.34814L19.6375 8.3335Z" fill="#475569" stroke="#475569" stroke-width="0.0902829"/>
</svg>
