<svg width="32" height="32" viewBox="0 0 32 32" fill="none" xmlns="http://www.w3.org/2000/svg">
<path d="M9.46729 15.2554H22.7095C22.9369 15.2554 23.1551 15.3455 23.3159 15.5063C23.4766 15.6672 23.5669 15.8854 23.5669 16.1128C23.5668 16.3402 23.4767 16.5584 23.3159 16.7192C23.1551 16.88 22.9369 16.9702 22.7095 16.9702H20.3423L20.4077 17.0454C20.9065 17.6205 21.1747 18.3605 21.1597 19.1216L21.1528 19.3218C21.0902 20.2529 20.5912 21.1411 19.7515 21.8081L19.5659 21.9478C18.6289 22.6187 17.3924 22.9888 16.0884 22.9888C14.8661 22.9887 13.7032 22.6641 12.7905 22.0708L12.6108 21.9478L12.4263 21.8081C11.5264 21.0935 11.0181 20.1248 11.0181 19.1216C11.0182 18.9228 11.0866 18.7311 11.2114 18.5786L11.269 18.5151C11.4299 18.3545 11.6482 18.2642 11.8755 18.2642C12.0743 18.2642 12.2659 18.3336 12.4185 18.4585L12.4819 18.5151C12.6427 18.6759 12.7328 18.8943 12.7329 19.1216C12.7329 19.7139 13.1255 20.2537 13.7358 20.6421C14.3471 21.0311 15.1837 21.2739 16.0884 21.2739C16.9931 21.2739 17.8296 21.0311 18.4409 20.6421C19.0514 20.2537 19.4438 19.7139 19.4438 19.1216C19.4437 18.6278 19.2626 18.2353 18.8325 17.894C18.4055 17.5553 17.7332 17.2666 16.7524 16.9722L16.7397 17.0151L16.7524 16.9702H9.46729C9.26841 16.9701 9.07682 16.9008 8.92432 16.7759L8.86084 16.7192C8.70013 16.5584 8.60991 16.3401 8.60986 16.1128C8.60986 15.9137 8.67912 15.7215 8.8042 15.5688L8.86084 15.5063C9.02157 15.3456 9.23999 15.2555 9.46729 15.2554ZM16.0884 9.23584C17.9283 9.23584 19.4747 9.97822 20.2944 11.229L20.4487 11.4858C20.5447 11.6833 20.5609 11.9102 20.4946 12.1196C20.4365 12.3033 20.3185 12.4611 20.1606 12.5688L20.0903 12.6118C19.9215 12.7047 19.7272 12.7384 19.5386 12.7075L19.4585 12.6899C19.2722 12.6408 19.109 12.5307 18.9937 12.3784L18.9468 12.311C18.4759 11.4551 17.4032 10.9517 16.0884 10.9517C15.2043 10.9517 14.4254 11.1788 13.8667 11.561C13.3078 11.9435 12.9673 12.483 12.9673 13.103C12.9673 13.3305 12.8762 13.5486 12.7153 13.7095C12.5545 13.8702 12.3363 13.9604 12.1089 13.9604C11.9101 13.9604 11.7184 13.8919 11.5659 13.7671L11.5024 13.7095C11.3418 13.5487 11.2515 13.3304 11.2515 13.103C11.2516 10.9061 13.3199 9.2359 16.0884 9.23584Z" fill="#475569" stroke="#475569" stroke-width="0.0902829"/>
</svg>
