<svg width="32" height="32" viewBox="0 0 32 32" fill="none" xmlns="http://www.w3.org/2000/svg">
<path d="M13.3035 19.4678H22.9343C23.1617 19.4678 23.38 19.558 23.5408 19.7188C23.7015 19.8795 23.7916 20.0979 23.7917 20.3252C23.7917 20.5242 23.7225 20.7165 23.5974 20.8691L23.5408 20.9316C23.38 21.0924 23.1617 21.1835 22.9343 21.1836H13.3035C13.1047 21.1835 12.913 21.1141 12.7605 20.9893L12.697 20.9316C12.5365 20.7708 12.446 20.5524 12.446 20.3252C12.4462 20.0979 12.5363 19.8795 12.697 19.7188C12.8578 19.558 13.0762 19.4679 13.3035 19.4678ZM9.69214 16.459H22.9343C23.1331 16.459 23.3248 16.5276 23.4773 16.6523L23.5408 16.71C23.7015 16.8708 23.7917 17.089 23.7917 17.3164C23.7917 17.5438 23.7016 17.762 23.5408 17.9229C23.38 18.0837 23.1617 18.1738 22.9343 18.1738H9.69214C9.49326 18.1737 9.30167 18.1045 9.14917 17.9795L9.08569 17.9229C8.92498 17.7621 8.83477 17.5437 8.83472 17.3164C8.83472 17.1173 8.90397 16.9251 9.02905 16.7725L9.08569 16.71C9.24643 16.5492 9.46484 16.4591 9.69214 16.459ZM13.3035 13.4492H22.9343C23.1332 13.4493 23.3247 13.5186 23.4773 13.6436L23.5408 13.7002C23.7016 13.861 23.7917 14.0792 23.7917 14.3066C23.7917 14.534 23.7015 14.7523 23.5408 14.9131C23.38 15.0739 23.1617 15.164 22.9343 15.1641H13.3035C13.0762 15.1639 12.8578 15.0738 12.697 14.9131C12.5364 14.7523 12.446 14.534 12.446 14.3066C12.4461 14.1078 12.5155 13.9162 12.6404 13.7637L12.697 13.7002C12.8578 13.5395 13.0762 13.4493 13.3035 13.4492ZM9.69214 10.4395H22.9343C23.1332 10.4395 23.3248 10.5089 23.4773 10.6338L23.5408 10.6904C23.7015 10.8512 23.7916 11.0696 23.7917 11.2969C23.7917 11.5243 23.7016 11.7434 23.5408 11.9043C23.38 12.065 23.1617 12.1552 22.9343 12.1553H9.69214L9.60815 12.1504C9.43982 12.1337 9.28003 12.0681 9.14917 11.9609L9.08569 11.9043C8.92485 11.7434 8.83472 11.5243 8.83472 11.2969C8.83483 11.0981 8.90417 10.9064 9.02905 10.7539L9.08569 10.6904C9.2265 10.5496 9.41172 10.4638 9.60815 10.4443L9.69214 10.4395Z" fill="#475569" stroke="#475569" stroke-width="0.0902829"/>
</svg>
