<svg width="32" height="32" viewBox="0 0 32 32" fill="none" xmlns="http://www.w3.org/2000/svg">
<path d="M11.0186 19.4678H20.6494C20.8768 19.4678 21.0951 19.558 21.2559 19.7188C21.4166 19.8795 21.5067 20.0979 21.5068 20.3252C21.5068 20.5242 21.4376 20.7165 21.3125 20.8691L21.2559 20.9316C21.0951 21.0924 20.8768 21.1835 20.6494 21.1836H11.0186C10.8198 21.1835 10.6281 21.1141 10.4756 20.9893L10.4121 20.9316C10.2516 20.7708 10.1611 20.5524 10.1611 20.3252C10.1612 20.1264 10.2306 19.9347 10.3555 19.7822L10.4121 19.7188C10.5728 19.558 10.7913 19.4679 11.0186 19.4678ZM9.21289 16.459H22.4551C22.6539 16.459 22.8455 16.5276 22.998 16.6523L23.0615 16.71C23.2222 16.8708 23.3125 17.089 23.3125 17.3164C23.3125 17.5438 23.2223 17.762 23.0615 17.9229C22.9007 18.0837 22.6825 18.1738 22.4551 18.1738H9.21289C9.01402 18.1737 8.82242 18.1045 8.66992 17.9795L8.60645 17.9229C8.44574 17.7621 8.35552 17.5437 8.35547 17.3164C8.35547 17.1173 8.42472 16.9251 8.5498 16.7725L8.60645 16.71C8.76718 16.5492 8.98559 16.4591 9.21289 16.459ZM11.0186 13.4492H20.6494C20.8483 13.4493 21.0398 13.5186 21.1924 13.6436L21.2559 13.7002C21.4167 13.861 21.5068 14.0792 21.5068 14.3066C21.5068 14.534 21.4166 14.7523 21.2559 14.9131C21.0951 15.0739 20.8768 15.164 20.6494 15.1641H11.0186C10.8198 15.164 10.628 15.0955 10.4756 14.9707L10.4121 14.9131C10.2515 14.7523 10.1611 14.534 10.1611 14.3066C10.1612 14.0793 10.2514 13.861 10.4121 13.7002C10.5728 13.5395 10.7913 13.4493 11.0186 13.4492ZM9.21289 10.4395H22.4551C22.6539 10.4395 22.8455 10.5089 22.998 10.6338L23.0615 10.6904C23.2223 10.8512 23.3124 11.0696 23.3125 11.2969C23.3125 11.5243 23.2224 11.7434 23.0615 11.9043C22.9007 12.065 22.6824 12.1552 22.4551 12.1553H9.21289L9.12891 12.1504C8.96057 12.1337 8.80078 12.0681 8.66992 11.9609L8.60645 11.9043C8.4456 11.7434 8.35547 11.5243 8.35547 11.2969C8.35558 11.0981 8.42492 10.9064 8.5498 10.7539L8.60645 10.6904C8.74725 10.5496 8.93247 10.4638 9.12891 10.4443L9.21289 10.4395Z" fill="#475569" stroke="#475569" stroke-width="0.0902829"/>
</svg>
