<svg width="16" height="16" viewBox="0 0 16 16" fill="none" xmlns="http://www.w3.org/2000/svg">
<path d="M8.21165 15.6123C7.10836 15.6123 6.0931 15.431 5.16587 15.0684C4.23864 14.7059 3.42878 14.1913 2.73629 13.5246C2.04381 12.8579 1.50977 12.0684 1.13418 11.1562C0.758594 10.2322 0.570801 9.21464 0.570801 8.10353C0.570801 7.00412 0.758594 5.99827 1.13418 5.08599C1.50977 4.16201 2.04381 3.37254 2.73629 2.71757C3.42878 2.0509 4.23864 1.53628 5.16587 1.17371C6.0931 0.799439 7.10249 0.612305 8.19404 0.612305C9.29733 0.612305 10.3008 0.799439 11.2046 1.17371C12.1084 1.54798 12.883 2.06844 13.5285 2.73511C14.1858 3.40178 14.6905 4.19125 15.0426 5.10353C15.3947 6.01581 15.5708 7.00997 15.5708 8.08599C15.5708 8.84622 15.4358 9.50704 15.1659 10.0684C14.9077 10.6182 14.5438 11.0451 14.0743 11.3491C13.6166 11.6415 13.0767 11.7877 12.4546 11.7877C12.0555 11.7877 11.6565 11.7117 11.2574 11.5597C10.8701 11.3959 10.5415 11.1503 10.2715 10.8228C10.0133 10.4953 9.87244 10.0626 9.84897 9.52459L10.2715 10.4018C10.1541 10.6942 9.96047 10.9456 9.69052 11.1562C9.42057 11.355 9.10366 11.5129 8.73981 11.6298C8.3877 11.7351 8.01798 11.7877 7.63066 11.7877C6.94991 11.7877 6.32784 11.6298 5.76446 11.3141C5.21282 10.9866 4.76681 10.5421 4.42643 9.98073C4.0978 9.40763 3.93348 8.76435 3.93348 8.0509C3.93348 7.34915 4.0978 6.70587 4.42643 6.12108C4.75507 5.53628 5.20108 5.06844 5.76446 4.71757C6.33958 4.36669 6.98512 4.19125 7.70108 4.19125C8.2762 4.19125 8.79263 4.30236 9.25038 4.52459C9.70813 4.73511 10.0133 5.02166 10.1659 5.38423L9.98982 5.98073V4.36669H11.5919V8.80529C11.5919 9.22634 11.6741 9.54798 11.8384 9.7702C12.0027 9.99242 12.2257 10.1035 12.5074 10.1035C12.8947 10.1035 13.1823 9.94564 13.3701 9.62985C13.5579 9.30236 13.6518 8.76435 13.6518 8.01581C13.6518 7.2088 13.5285 6.46611 13.2821 5.78774C13.0473 5.09768 12.7011 4.50119 12.2433 3.99827C11.7856 3.48365 11.2163 3.08599 10.5356 2.80529C9.86658 2.51289 9.09193 2.36669 8.21165 2.36669C7.35484 2.36669 6.57432 2.51289 5.8701 2.80529C5.17761 3.08599 4.57315 3.48365 4.05672 3.99827C3.55202 4.51289 3.15883 5.11523 2.87714 5.80529C2.60719 6.49535 2.47221 7.25558 2.47221 8.08599C2.47221 8.92809 2.61305 9.70587 2.89474 10.4193C3.18817 11.1211 3.5931 11.7293 4.10953 12.2439C4.62597 12.7585 5.23043 13.1562 5.92291 13.4369C6.62714 13.7176 7.39005 13.8579 8.21165 13.8579C8.76329 13.8579 9.29146 13.7877 9.79615 13.6474C10.3126 13.5187 10.7821 13.3199 11.2046 13.0509L12.0145 14.5948C10.9112 15.2731 9.64357 15.6123 8.21165 15.6123ZM7.82432 10.1035C8.22338 10.1035 8.57549 10.01 8.88066 9.82283C9.18582 9.6357 9.42057 9.38423 9.58488 9.06845C9.76094 8.74096 9.84897 8.38423 9.84897 7.99827C9.84897 7.40178 9.66118 6.9047 9.28559 6.50704C8.91 6.10938 8.42878 5.9047 7.84193 5.89301C7.4546 5.89301 7.10249 5.98073 6.78559 6.15616C6.46869 6.3316 6.21634 6.57722 6.02855 6.89301C5.85249 7.2088 5.76446 7.57137 5.76446 7.98073C5.76446 8.37839 5.85249 8.74096 6.02855 9.06845C6.21634 9.38423 6.46282 9.6357 6.76798 9.82283C7.08489 10.01 7.437 10.1035 7.82432 10.1035Z" fill="#65737F"/>
</svg>
