<svg width="31" height="32" viewBox="0 0 31 32" fill="none" xmlns="http://www.w3.org/2000/svg">
<path d="M9.83911 16.4814C10.3151 16.4159 10.7974 16.5135 11.2083 16.7549L11.3801 16.8672C11.5472 16.988 11.6946 17.1334 11.8176 17.2979L11.9329 17.4688C12.039 17.6454 12.1176 17.8367 12.1663 18.0361L12.2043 18.2383V18.2393C12.2333 18.4402 12.2321 18.644 12.2004 18.8438L12.1584 19.042C12.1067 19.2385 12.0263 19.4259 11.9192 19.5977L11.804 19.7637L11.803 19.7646L10.7288 21.2021L10.675 21.2744H11.3665C11.5656 21.2744 11.7578 21.3436 11.9104 21.4688L11.9729 21.5254C12.1337 21.6862 12.2249 21.9044 12.2249 22.1318C12.2248 22.3309 12.1556 22.5231 12.0305 22.6758L11.9729 22.7383C11.8121 22.899 11.5938 22.9893 11.3665 22.9893H8.95923L8.84106 22.9814C8.76294 22.9705 8.68671 22.9487 8.6145 22.917L8.50903 22.8613C8.37368 22.7777 8.2639 22.6579 8.19263 22.5156C8.13931 22.4091 8.10871 22.293 8.10278 22.1748L8.10571 22.0557C8.11629 21.937 8.15129 21.8224 8.20825 21.7188L8.27271 21.6182L10.4299 18.7334L10.4397 18.7207L10.4387 18.7197C10.4518 18.7033 10.4643 18.6866 10.4739 18.668L10.4983 18.6074C10.5041 18.5867 10.5076 18.5653 10.509 18.5439L10.5061 18.4785C10.5028 18.4558 10.4973 18.4336 10.4895 18.4121L10.4602 18.3506C10.4361 18.3117 10.4041 18.278 10.3665 18.252H10.3655C10.3032 18.2071 10.2301 18.1806 10.1545 18.1758L10.0784 18.1787C10.0017 18.1884 9.93012 18.22 9.87134 18.2686L9.81665 18.3223V18.3232L9.76587 18.4092V18.4102C9.68604 18.621 9.52647 18.7927 9.32153 18.8867C9.1165 18.9807 8.88212 18.9902 8.67017 18.9131C8.48463 18.8455 8.3295 18.7157 8.22876 18.5479L8.18872 18.4746C8.0922 18.271 8.07935 18.037 8.15356 17.8242C8.22631 17.6244 8.33056 17.4374 8.46118 17.2695L8.46021 17.2686C8.75832 16.8918 9.17433 16.6287 9.63794 16.5186L9.83911 16.4814ZM14.677 20.0703H22.2004C22.4277 20.0703 22.6461 20.1607 22.8069 20.3213C22.9677 20.4821 23.0588 20.7004 23.0588 20.9277C23.0588 21.1268 22.9895 21.3191 22.8645 21.4717L22.8069 21.5342C22.646 21.695 22.4279 21.7861 22.2004 21.7861H14.677C14.4782 21.7861 14.2865 21.7166 14.134 21.5918L14.0706 21.5342C13.9099 21.3734 13.8196 21.1551 13.8196 20.9277C13.8196 20.7289 13.889 20.5373 14.0139 20.3848L14.0706 20.3213C14.2313 20.1605 14.4496 20.0704 14.677 20.0703ZM14.677 15.2549H22.2004C22.3994 15.2549 22.5918 15.3242 22.7444 15.4492L22.8069 15.5068C22.9677 15.6677 23.0588 15.8858 23.0588 16.1133C23.0588 16.3121 22.9893 16.5038 22.8645 16.6562L22.8069 16.7197C22.6461 16.8803 22.4277 16.9707 22.2004 16.9707H14.677C14.4496 16.9706 14.2313 16.8805 14.0706 16.7197C13.9098 16.559 13.8197 16.3406 13.8196 16.1133C13.8196 15.9142 13.8888 15.722 14.0139 15.5693L14.0706 15.5068C14.2313 15.346 14.4496 15.255 14.677 15.2549ZM10.2024 8.63574C10.3118 8.64076 10.4187 8.6669 10.5178 8.71191L10.6145 8.7627C10.7077 8.82032 10.7881 8.89579 10.8528 8.9834L10.9124 9.0752C10.9834 9.2027 11.0207 9.34623 11.0208 9.49219V14.3076C11.0207 14.5065 10.9514 14.6981 10.8264 14.8506L10.7698 14.9141C10.609 15.0748 10.3907 15.165 10.1633 15.165C9.93599 15.165 9.71771 15.0747 9.55688 14.9141C9.39612 14.7533 9.306 14.535 9.30591 14.3076V10.8799L9.24634 10.8994C9.09352 10.9492 8.93069 10.9547 8.77661 10.917L8.62524 10.8643C8.47885 10.7976 8.35494 10.6917 8.26685 10.5596L8.19165 10.4189C8.12869 10.2708 8.10872 10.1091 8.13306 9.95215L8.17212 9.79785C8.2434 9.5961 8.3868 9.42711 8.57544 9.32617L8.57642 9.32715L9.78052 8.72559L9.77954 8.72461C9.87765 8.67563 9.98439 8.6466 10.093 8.6377L10.2024 8.63574ZM14.677 10.4404H22.2004C22.3996 10.4404 22.5917 10.5096 22.7444 10.6348L22.8069 10.6914C22.9677 10.8523 23.0588 11.0704 23.0588 11.2979C23.0588 11.4969 22.9896 11.6892 22.8645 11.8418L22.8069 11.9043C22.6461 12.065 22.4278 12.1553 22.2004 12.1553H14.677C14.4781 12.1552 14.2866 12.0859 14.134 11.9609L14.0706 11.9043C13.9098 11.7435 13.8196 11.5253 13.8196 11.2979C13.8196 11.0987 13.8887 10.9066 14.0139 10.7539L14.0706 10.6914C14.2313 10.5306 14.4496 10.4405 14.677 10.4404Z" fill="#475569" stroke="#475569" stroke-width="0.0902829"/>
</svg>
