<svg width="32" height="32" viewBox="0 0 32 32" fill="none" xmlns="http://www.w3.org/2000/svg">
<path d="M17.5117 7.12695C17.711 7.12695 17.9038 7.19613 18.0566 7.32129L18.1201 7.37891C18.2811 7.54 18.3711 7.75859 18.3711 7.98633C18.3711 8.1858 18.3021 8.37832 18.1768 8.53125L18.1201 8.59375L14.8457 11.8672L14.8135 11.8994L20.8213 17.9072L20.8525 17.875L24.125 14.6025C24.1847 14.5427 24.2529 14.492 24.3271 14.4521L24.4033 14.416C24.5076 14.3727 24.6196 14.3506 24.7324 14.3506C24.8169 14.3506 24.9009 14.3632 24.9814 14.3877L25.0615 14.416C25.1396 14.4484 25.2123 14.4924 25.2773 14.5459L25.3398 14.6025V14.6035C25.3999 14.6634 25.4513 14.7312 25.4912 14.8057L25.5273 14.8818C25.5707 14.9861 25.5928 15.098 25.5928 15.2109C25.5928 15.2958 25.5803 15.3801 25.5557 15.4609L25.5273 15.54C25.4949 15.6181 25.451 15.6908 25.3975 15.7559L25.3398 15.8184V15.8193L21.8525 19.3057C21.7513 19.4075 21.6359 19.4939 21.5098 19.5615L21.3799 19.623C21.2029 19.6964 21.0129 19.7339 20.8213 19.7334L20.6982 19.7275C20.5763 19.7169 20.4558 19.6908 20.3398 19.6504L20.3135 19.6416L20.293 19.6611L18.8438 21.1113C18.57 21.3849 18.1985 21.5381 17.8115 21.5381C17.4729 21.5381 17.1464 21.4207 16.8867 21.208L16.7793 21.1113L16.6396 20.9707L16.6074 20.9395L16.5762 20.9707L14.2051 23.3398C14.1454 23.3995 14.0771 23.4496 14.0029 23.4893L13.9268 23.5254C13.8227 23.5685 13.7112 23.5908 13.5986 23.5908L13.4609 23.5801L13.3271 23.5469L7.91016 21.7412C7.80618 21.7066 7.7101 21.6524 7.62695 21.582L7.54883 21.5059C7.47484 21.425 7.4163 21.3315 7.37793 21.2295L7.34668 21.125C7.32143 21.0182 7.31681 20.9076 7.33301 20.7998L7.35645 20.6934C7.38632 20.588 7.4355 20.4895 7.50195 20.4033L7.57422 20.3213L11.749 16.1445L11.7812 16.1133L11.75 16.0811L11.6123 15.9414L11.6113 15.9404L11.5146 15.834C11.3019 15.5743 11.1846 15.2478 11.1846 14.9092C11.1846 14.5707 11.3021 14.244 11.5146 13.9844L11.6113 13.877L13.0625 12.4268L13.082 12.4062L13.0732 12.3799C12.9828 12.121 12.9665 11.8416 13.0273 11.5742C13.073 11.3737 13.1607 11.1857 13.2832 11.0225L13.417 10.8672L16.9043 7.37891C17.0653 7.21785 17.284 7.12705 17.5117 7.12695ZM12.9648 17.3594L9.82031 20.502L9.76855 20.5527L9.83789 20.5762L13.3398 21.7432L13.3672 21.752L13.3867 21.7324L15.3604 19.7559L15.3926 19.7236L15.3604 19.6924L13.0283 17.3594L12.9961 17.3281L12.9648 17.3594ZM14.168 13.748L13.04 14.877L13.0078 14.9092L13.04 14.9404L13.6035 15.5068L17.7793 19.6807L17.8115 19.7129L17.8438 19.6807L18.9717 18.5518L19.0039 18.5205L18.9717 18.4883L14.2324 13.748L14.2002 13.7168L14.168 13.748Z" fill="#475569" stroke="#475569" stroke-width="0.0902829"/>
</svg>
