<svg width="31" height="32" viewBox="0 0 31 32" fill="none" xmlns="http://www.w3.org/2000/svg">
<path d="M8.86401 21.8755H22.1062C22.305 21.8755 22.4966 21.945 22.6492 22.0698L22.7126 22.1265C22.8735 22.2873 22.9636 22.5064 22.9636 22.7339C22.9635 22.9612 22.8734 23.1796 22.7126 23.3403C22.5519 23.501 22.3335 23.5913 22.1062 23.5913H8.86401C8.6652 23.5912 8.47352 23.5219 8.32104 23.397L8.25757 23.3403C8.09684 23.1796 8.00672 22.9612 8.00659 22.7339C8.00659 22.5349 8.07594 22.3425 8.20093 22.1899L8.25757 22.1265C8.4183 21.9657 8.63672 21.8756 8.86401 21.8755ZM15.4851 8.03174C15.6071 8.03174 15.7273 8.05815 15.8376 8.10791L15.9451 8.16553C16.048 8.23091 16.1354 8.31731 16.2019 8.41846L16.2615 8.5249L21.0769 18.7573C21.1614 18.9373 21.1807 19.1404 21.1326 19.3315L21.1072 19.4126C21.0301 19.6266 20.8715 19.8011 20.6658 19.8979C20.4855 19.9828 20.2821 20.0019 20.0906 19.9536L20.0095 19.9292C19.8223 19.8617 19.6654 19.7314 19.5642 19.562L19.5242 19.4878L18.3523 16.9966L18.3396 16.9702H12.6306L12.6189 16.9966L11.449 19.4878C11.413 19.5644 11.3658 19.6351 11.3093 19.6978L11.2498 19.7573C11.1871 19.8144 11.1161 19.8617 11.0398 19.8979L10.9617 19.9302C10.8556 19.9682 10.7432 19.9854 10.6306 19.98C10.5459 19.9759 10.4621 19.9596 10.3826 19.9312L10.3054 19.8979H10.3044C10.2283 19.8621 10.1578 19.8155 10.0955 19.7593L10.0359 19.6997C9.97904 19.6372 9.93141 19.5667 9.89526 19.4907L9.86304 19.4126C9.83438 19.333 9.81749 19.2497 9.81323 19.1655V19.0815C9.81724 18.9971 9.83379 18.9139 9.86206 18.8345L9.89429 18.7573L14.7087 8.5249C14.7607 8.41447 14.8355 8.31653 14.9275 8.23779L15.0251 8.16553C15.1626 8.07828 15.3223 8.03176 15.4851 8.03174ZM15.4441 10.9907L13.4675 15.1909L13.4373 15.2554H17.533L17.5027 15.1909L15.5261 10.9907L15.4851 10.9038L15.4441 10.9907Z" fill="#475569" stroke="#475569" stroke-width="0.0902829"/>
</svg>
