<svg width="31" height="32" viewBox="0 0 31 32" fill="none" xmlns="http://www.w3.org/2000/svg">
<path d="M11.9146 9.23584H17.0308C17.6218 9.23605 18.2022 9.38367 18.7202 9.6626L18.939 9.78955C19.4383 10.106 19.8497 10.5412 20.1382 11.0542L20.2544 11.2788C20.5068 11.813 20.6219 12.4004 20.5913 12.9878L20.5688 13.2397C20.486 13.9101 20.2143 14.5429 19.7856 15.0649L19.7515 15.1069L19.7993 15.1333C20.5504 15.5473 21.1429 16.1995 21.4829 16.9868C21.7804 17.6757 21.8699 18.4342 21.7446 19.1694L21.6772 19.4829C21.4904 20.2097 21.0968 20.8642 20.5474 21.3687L20.3022 21.5757C19.6246 22.1013 18.7916 22.3868 17.9341 22.3872H11.9146C11.7157 22.3871 11.5241 22.3178 11.3716 22.1929L11.3081 22.1362C11.1474 21.9754 11.0572 21.7571 11.0571 21.5298V10.0933L11.062 10.0093C11.0787 9.84094 11.1443 9.68115 11.2515 9.55029L11.3081 9.48682C11.4489 9.34601 11.6341 9.26017 11.8306 9.24072L11.9146 9.23584ZM12.7729 20.6724H17.9341C18.5047 20.6723 19.0521 20.445 19.4556 20.0415C19.859 19.638 20.0854 19.0906 20.0854 18.52C20.0854 18.0208 19.9118 17.5396 19.5981 17.1567L19.4556 16.9985C19.0521 16.595 18.5047 16.3687 17.9341 16.3687H12.7729V20.6724ZM12.7729 14.6528H17.0308C17.5215 14.6528 17.9923 14.4578 18.3394 14.1108C18.6864 13.7637 18.8823 13.2931 18.8823 12.8022C18.8823 12.3727 18.7323 11.9588 18.4624 11.6294L18.3394 11.4937C17.9923 11.1467 17.5216 10.9517 17.0308 10.9517H12.7729V14.6528Z" fill="#475569" stroke="#475569" stroke-width="0.0902829"/>
</svg>
