<svg width="32" height="32" viewBox="0 0 32 32" fill="none" xmlns="http://www.w3.org/2000/svg">
<path d="M14.843 9.83789H20.8625C21.0614 9.83794 21.253 9.90737 21.4055 10.0322L21.469 10.0889C21.6297 10.2496 21.7198 10.468 21.72 10.6953C21.72 10.9228 21.6298 11.1419 21.469 11.3027C21.3082 11.4634 21.0899 11.5537 20.8625 11.5537H18.4709L18.4612 11.584L15.4514 20.6123L15.4319 20.6719H17.2512C17.4786 20.6719 17.6969 20.7621 17.8577 20.9229C18.0184 21.0836 18.1085 21.302 18.1086 21.5293C18.1086 21.7284 18.0394 21.9206 17.9143 22.0732L17.8577 22.1357C17.6969 22.2965 17.4786 22.3876 17.2512 22.3877H11.2317C11.0329 22.3876 10.8412 22.3182 10.6887 22.1934L10.6252 22.1357C10.4647 21.9749 10.3743 21.7565 10.3743 21.5293C10.3744 21.3305 10.4437 21.1388 10.5686 20.9863L10.6252 20.9229C10.786 20.7621 11.0044 20.672 11.2317 20.6719H13.6233L13.634 20.6416L16.6428 11.6133L16.6633 11.5537H14.843L14.759 11.5488C14.5626 11.5294 14.3774 11.4435 14.2366 11.3027C14.0757 11.1419 13.9856 10.9228 13.9856 10.6953C13.9857 10.4965 14.055 10.3048 14.1799 10.1523L14.2366 10.0889C14.3774 9.94807 14.5626 9.86222 14.759 9.84277L14.843 9.83789Z" fill="#475569" stroke="#475569" stroke-width="0.0902829"/>
</svg>
