<svg width="32" height="32" viewBox="0 0 32 32" fill="none" xmlns="http://www.w3.org/2000/svg">
<path d="M9.82715 8.63379H21.8643C22.2031 8.63379 22.5303 8.75186 22.79 8.96484L22.8965 9.06152C23.1702 9.33525 23.3242 9.70665 23.3242 10.0938V22.1309C23.3242 22.4696 23.2069 22.7969 22.9941 23.0566L22.8965 23.1631C22.6228 23.4368 22.2514 23.5908 21.8643 23.5908H9.82715C9.48862 23.5908 9.162 23.4733 8.90234 23.2607L8.79492 23.1631C8.52129 22.8894 8.36719 22.5179 8.36719 22.1309V10.0938C8.36719 9.75507 8.48548 9.42866 8.69824 9.16895L8.79492 9.06152C9.06865 8.7878 9.44005 8.63379 9.82715 8.63379ZM10.083 21.918L18.124 13.877C18.3977 13.6033 18.7692 13.4492 19.1562 13.4492C19.495 13.4492 19.8213 13.5674 20.0811 13.7803L20.1885 13.877L21.6094 15.2979V10.3496H10.083V21.918ZM12.8799 12.3564C13.1131 12.2599 13.3669 12.2252 13.6162 12.2559L13.7227 12.2734C13.9705 12.3227 14.2011 12.4353 14.3916 12.5996L14.4707 12.6729C14.6493 12.8515 14.7776 13.0732 14.8447 13.3154L14.8701 13.4199C14.9194 13.6676 14.903 13.9234 14.8242 14.1621L14.7871 14.2637C14.6905 14.497 14.535 14.7008 14.3369 14.8555L14.249 14.9189C14.0091 15.0792 13.727 15.164 13.4385 15.1641C13.0999 15.1641 12.7734 15.0467 12.5137 14.834L12.4062 14.7373C12.1326 14.4636 11.9786 14.0921 11.9785 13.7051C11.9785 13.4526 12.0443 13.205 12.168 12.9863L12.2246 12.8936C12.3649 12.6837 12.557 12.5144 12.7812 12.4014L12.8799 12.3564ZM21.6094 17.7236L19.1562 15.2705L19.124 15.3027L12.6289 21.7988L12.5518 21.876H21.6094V17.7236Z" fill="#475569" stroke="#475569" stroke-width="0.0902829"/>
</svg>
