<svg width="32" height="32" viewBox="0 0 32 32" fill="none" xmlns="http://www.w3.org/2000/svg">
<path d="M9.78101 19.7695C10.0498 19.7696 10.3093 19.8623 10.5154 20.0312L10.6003 20.1084C10.8175 20.3257 10.9392 20.6205 10.9392 20.9277C10.9392 21.0997 10.9008 21.2687 10.8279 21.4229L10.7439 21.5713C10.6484 21.7141 10.5228 21.8332 10.3767 21.9209L10.2244 21.998C10.0656 22.0638 9.8946 22.0932 9.72437 22.085L9.55444 22.0645C9.38581 22.0309 9.22757 21.96 9.09058 21.8584L8.96167 21.7471C8.79963 21.585 8.68899 21.3781 8.64429 21.1533C8.61083 20.9848 8.61562 20.8118 8.65698 20.6465L8.71069 20.4844C8.79839 20.2727 8.94695 20.0912 9.13745 19.9639C9.32787 19.8368 9.55207 19.7695 9.78101 19.7695ZM13.0906 20.0703H22.7214C22.9488 20.0704 23.1671 20.1605 23.3279 20.3213C23.4887 20.4821 23.5789 20.7003 23.5789 20.9277C23.5788 21.1269 23.5097 21.319 23.3845 21.4717L23.3279 21.5342C23.1671 21.695 22.9488 21.7851 22.7214 21.7852H13.0906C12.8917 21.785 12.7001 21.7158 12.5476 21.5908L12.4841 21.5342C12.3234 21.3734 12.2332 21.1551 12.2332 20.9277C12.2332 20.7004 12.3234 20.4821 12.4841 20.3213C12.6449 20.1606 12.8633 20.0704 13.0906 20.0703ZM9.78101 14.9541C10.05 14.9542 10.3092 15.0477 10.5154 15.2168L10.6003 15.293C10.8175 15.5102 10.9391 15.8051 10.9392 16.1123C10.9392 16.2842 10.9007 16.4533 10.8279 16.6074L10.7439 16.7559C10.6484 16.8988 10.5229 17.0187 10.3767 17.1064L10.2244 17.1826C10.0656 17.2484 9.89461 17.2778 9.72437 17.2695L9.55444 17.249C9.38596 17.2155 9.22748 17.1454 9.09058 17.0439L8.96167 16.9316C8.84006 16.81 8.74767 16.6635 8.69019 16.5029L8.64429 16.3389C8.61072 16.1701 8.61551 15.9966 8.65698 15.8311L8.71069 15.6689C8.79841 15.4574 8.94703 15.2766 9.13745 15.1494C9.32793 15.0222 9.55195 14.9541 9.78101 14.9541ZM13.0906 15.2549H22.7214C22.9203 15.2549 23.1119 15.3243 23.2644 15.4492L23.3279 15.5059C23.4887 15.6666 23.5788 15.8849 23.5789 16.1123C23.5789 16.3397 23.4886 16.5579 23.3279 16.7188C23.1671 16.8795 22.9488 16.9706 22.7214 16.9707H13.0906C12.8633 16.9706 12.6449 16.8795 12.4841 16.7188C12.3235 16.5579 12.2332 16.3396 12.2332 16.1123C12.2332 15.9135 12.3026 15.7218 12.4275 15.5693L12.4841 15.5059C12.6449 15.3451 12.8633 15.255 13.0906 15.2549ZM9.78101 10.1387C10.0499 10.1387 10.3092 10.2324 10.5154 10.4014L10.6003 10.4785C10.8174 10.6958 10.9392 10.9907 10.9392 11.2979C10.9392 11.4698 10.9008 11.6388 10.8279 11.793L10.7439 11.9414C10.6484 12.0842 10.5228 12.2034 10.3767 12.291L10.2244 12.3682C10.0656 12.4339 9.8946 12.4634 9.72437 12.4551L9.55444 12.4336C9.38592 12.4 9.2275 12.33 9.09058 12.2285L8.96167 12.1172C8.84021 11.9957 8.74768 11.8489 8.69019 11.6885L8.64429 11.5234C8.61079 11.3549 8.61566 11.1819 8.65698 11.0166L8.71069 10.8545C8.7765 10.6956 8.87634 10.554 9.00269 10.4395L9.13745 10.334C9.28023 10.2387 9.44169 10.1764 9.61011 10.1514L9.78101 10.1387ZM13.0906 10.4395H22.7214C22.9202 10.4395 23.1119 10.509 23.2644 10.6338L23.3279 10.6914C23.4886 10.8522 23.5789 11.0705 23.5789 11.2979C23.5788 11.5252 23.4887 11.7435 23.3279 11.9043C23.1671 12.0651 22.9488 12.1552 22.7214 12.1553H13.0906C12.8633 12.1551 12.6449 12.065 12.4841 11.9043C12.3234 11.7435 12.2332 11.5252 12.2332 11.2979C12.2332 11.0988 12.3025 10.9065 12.4275 10.7539L12.4841 10.6914C12.6449 10.5307 12.8633 10.4396 13.0906 10.4395Z" fill="#475569" stroke="#475569" stroke-width="0.0902829"/>
</svg>
