<svg width="32" height="32" viewBox="0 0 32 32" fill="none" xmlns="http://www.w3.org/2000/svg">
<path d="M13.345 19.4678H22.9758C23.2032 19.4678 23.4215 19.558 23.5823 19.7188C23.743 19.8795 23.8331 20.0979 23.8333 20.3252C23.8333 20.5242 23.764 20.7165 23.6389 20.8691L23.5823 20.9316C23.4215 21.0924 23.2032 21.1835 22.9758 21.1836H13.345C13.1462 21.1835 12.9545 21.1141 12.802 20.9893L12.7385 20.9316C12.578 20.7708 12.4875 20.5524 12.4875 20.3252C12.4877 20.0979 12.5778 19.8795 12.7385 19.7188C12.8993 19.558 13.1177 19.4679 13.345 19.4678ZM9.73364 16.459H22.9758C23.1746 16.459 23.3663 16.5276 23.5188 16.6523L23.5823 16.71C23.743 16.8708 23.8333 17.089 23.8333 17.3164C23.8332 17.5438 23.7431 17.762 23.5823 17.9229C23.4215 18.0837 23.2032 18.1738 22.9758 18.1738H9.73364C9.53477 18.1737 9.34318 18.1045 9.19067 17.9795L9.1272 17.9229C8.96649 17.7621 8.87627 17.5437 8.87622 17.3164C8.87622 17.1173 8.94548 16.9251 9.07056 16.7725L9.1272 16.71C9.28793 16.5492 9.50634 16.4591 9.73364 16.459ZM13.345 13.4492H22.9758C23.1747 13.4493 23.3663 13.5186 23.5188 13.6436L23.5823 13.7002C23.7431 13.861 23.8332 14.0792 23.8333 14.3066C23.8333 14.534 23.743 14.7523 23.5823 14.9131C23.4215 15.0739 23.2032 15.164 22.9758 15.1641H13.345C13.1177 15.1639 12.8993 15.0738 12.7385 14.9131C12.5779 14.7523 12.4875 14.534 12.4875 14.3066C12.4876 14.1078 12.557 13.9162 12.6819 13.7637L12.7385 13.7002C12.8993 13.5395 13.1177 13.4493 13.345 13.4492ZM9.73364 10.4395H22.9758C23.1747 10.4395 23.3663 10.5089 23.5188 10.6338L23.5823 10.6904C23.743 10.8512 23.8331 11.0696 23.8333 11.2969C23.8333 11.5243 23.7431 11.7434 23.5823 11.9043C23.4215 12.065 23.2032 12.1552 22.9758 12.1553H9.73364L9.64966 12.1504C9.48132 12.1337 9.32153 12.0681 9.19067 11.9609L9.1272 11.9043C8.96635 11.7434 8.87622 11.5243 8.87622 11.2969C8.87633 11.0981 8.94567 10.9064 9.07056 10.7539L9.1272 10.6904C9.268 10.5496 9.45322 10.4638 9.64966 10.4443L9.73364 10.4395Z" fill="#475569" stroke="#475569" stroke-width="0.0902829"/>
</svg>
